<svg height="512pt" viewBox="-17 0 512 512" width="512pt" xmlns="http://www.w3.org/2000/svg"><path d="m463.945312 60.753906-16.730468-16.695312v-29.058594c0-8.285156-6.714844-15-15-15h-218.296875c-3.707031 0-7.3125.929688-10.59375 4.382812l-125.796875 125.511719c-3.296875 3.292969-4.40625 4.792969-4.40625 10.621094v190.5625l-37.03125 36.96875c-3.261719 1.929687-5.722656 5.054687-6.789063 8.800781l-28.730469 101.183594c-1.484374 5.230469-.023437 10.851562 3.816407 14.699219 2.855469 2.855469 6.6875 4.398437 10.613281 4.398437 1.359375 0 58.121094-15.84375 58.121094-15.84375v15.714844c0 8.285156 6.714844 15 15 15h344.09375c8.28125 0 15-6.714844 15-15v-352.5625l16.738281-16.710938c8.957031-8.941406 13.890625-20.835937 13.886719-33.488281 0-12.65625-4.933594-24.546875-13.894532-33.484375zm-265.027343-9.597656v74.355469h-74.523438zm-95.796875 104.359375h110.796875c8.285156 0 15-6.71875 15-15v-110.515625h146.453125c-1.691406 1.28125-272.25 271.132812-272.25 271.132812zm303.957031-13.402344-38.890625 38.820313-51.105469-50.992188 38.890625-38.820312zm-370.3125 318.273438 14.429687-50.804688 19.292969 19.25 17.199219 17.160157zm28.535156-79.109375 230.546875-230.140625 51.109375 50.992187-230.546875 230.140625zm61.707031 82.800781 290.207032-289.695313v307.617188h-314.09375v-9.195312l17.371094-4.910157c3.75-.996093 4.933593-2.238281 6.515624-3.816406zm315.753907-357.585937-14.453125 14.425781-51.105469-50.992188 14.5-14.472656c6.742187-6.730469 17.710937-6.730469 24.457031-.003906l26.597656 26.539062c3.277344 3.269531 5.082032 7.621094 5.085938 12.25 0 4.632813-1.804688 8.984375-5.082031 12.253907zm0 0"/></svg>