<svg height="512pt" viewBox="0 -53 512 512" width="512pt" xmlns="http://www.w3.org/2000/svg"><path d="m404.289062 0c-54.300781 0-99.339843 40.394531-106.660156 92.710938h-282.628906c-8.285156 0-15 6.714843-15 15v282.570312c0 8.28125 6.714844 15 15 15h458.457031c8.285157 0 15-6.71875 15-15v-215.441406c14.726563-18.425782 23.542969-41.765625 23.542969-67.128906 0-59.390626-48.316406-107.710938-107.710938-107.710938zm-106.660156 122.710938c3.140625 22.441406 13.21875 42.6875 28 58.492187l-51.546875 31.773437c-18.414062 11.347657-41.292969 11.347657-59.742187-.023437l-147.382813-90.242187zm-267.628906 12.546874 128.425781 78.636719-128.425781 138.335938zm19.535156 240.023438 134.988282-145.40625 14.113281 8.640625c14.058593 8.667969 29.824219 13 45.589843 13 15.765626 0 31.53125-4.332031 45.59375-13l14.078126-8.675781 135.023437 145.441406zm408.921875-23.050781-128.519531-138.441407 20.660156-12.730468c15.8125 9.132812 34.15625 14.363281 53.691406 14.363281 19.738282 0 38.246094-5.339844 54.171876-14.644531v151.453125zm-54.167969-166.808594c-42.847656 0-77.710937-34.863281-77.710937-77.710937 0-42.847657 34.863281-77.710938 77.710937-77.710938 42.851563 0 77.710938 34.859375 77.710938 77.710938 0 42.847656-34.859375 77.710937-77.710938 77.710937zm0 0"/><path d="m441.484375 60.011719-55.742187 55.738281-18.644532-18.644531c-5.859375-5.859375-15.355468-5.859375-21.214844 0-5.859374 5.855469-5.859374 15.355469 0 21.210937l29.253907 29.253906c2.929687 2.929688 6.769531 4.394532 10.605469 4.394532 3.839843 0 7.679687-1.464844 10.605468-4.394532l66.347656-66.347656c5.859376-5.855468 5.859376-15.355468 0-21.210937-5.855468-5.859375-15.355468-5.859375-21.210937 0zm0 0"/></svg>