<?xml version="1.0" encoding="iso-8859-1"?>
<!-- Generator: Adobe Illustrator 19.0.0, SVG Export Plug-In . SVG Version: 6.00 Build 0)  -->
<svg version="1.1" id="Layer_1" xmlns="http://www.w3.org/2000/svg" xmlns:xlink="http://www.w3.org/1999/xlink" x="0px" y="0px"
	 viewBox="0 0 512 512" style="enable-background:new 0 0 512 512;" xml:space="preserve">
<g>
	<g>
		<g>
			<path d="M444.561,288.053c-4.079-12.622-2.442-26.351,4.49-37.664c2.013-3.285,2.094-7.402,0.212-10.763
				c-1.883-3.362-5.434-5.444-9.287-5.444h-15.967V84.958l7.305-19.482c0.448-1.195,0.678-2.461,0.678-3.737V10.645
				C431.992,4.766,427.226,0,421.347,0h-58.546c-5.879,0-10.645,4.766-10.645,10.645v51.094c0,1.276,0.23,2.543,0.678,3.737
				l7.305,19.482v149.224h-15.967c-3.853,0-7.406,2.082-9.287,5.444c-1.883,3.362-1.801,7.478,0.212,10.763
				c6.933,11.312,8.57,25.04,4.491,37.664c-4.021,12.443-6.059,24.951-6.059,37.177v155.286c0,16.777,13.649,30.426,30.426,30.426
				h56.239c16.777,0,30.426-13.649,30.426-30.426V325.23C450.62,313.004,448.581,300.495,444.561,288.053z M373.446,21.289h37.256
				v38.52l-7.305,19.482c-0.448,1.195-0.678,2.461-0.678,3.737v151.154H381.43V83.028c0-1.276-0.23-2.543-0.678-3.737l-7.305-19.482
				V21.289z M429.332,480.517h-0.001c0,5.038-4.098,9.136-9.136,9.136h-56.239c-5.038,0-9.136-4.099-9.136-9.136V325.23
				c0-10.001,1.691-20.306,5.029-30.631c4.147-12.836,4.273-26.451,0.579-39.128h63.298c-3.694,12.678-3.569,26.29,0.579,39.128
				c3.336,10.324,5.027,20.63,5.027,30.631V480.517z"/>
			<path d="M392.074,310.509c-5.879,0-10.645,4.766-10.645,10.645v2.09c0,5.879,4.766,10.645,10.645,10.645
				s10.645-4.766,10.645-10.645v-2.09C402.719,315.274,397.953,310.509,392.074,310.509z"/>
			<path d="M392.074,351.716c-5.879,0-10.645,4.766-10.645,10.645v90.835c0,5.879,4.766,10.645,10.645,10.645
				s10.645-4.766,10.645-10.645v-90.835C402.719,356.482,397.953,351.716,392.074,351.716z"/>
			<path d="M228.578,3.465c-3.045-3.044-7.624-3.956-11.601-2.307c-3.978,1.648-6.571,5.529-6.571,9.835v106.446h-63.868V10.993
				c0-4.305-2.594-8.187-6.571-9.835c-3.978-1.648-8.556-0.737-11.601,2.307l-27.821,27.821
				C75.29,56.541,61.38,90.121,61.38,125.838v18.946c0,26.969,13.109,52.417,35.068,68.075
				c16.367,11.671,26.139,30.64,26.139,50.741v222.856c0,14.085,11.459,25.544,25.544,25.544h60.682
				c14.085,0,25.544-11.459,25.544-25.544V263.6c0-20.101,9.772-39.07,26.139-50.741c21.959-15.657,35.068-41.105,35.068-68.075
				v-18.946c0-35.717-13.909-69.297-39.165-94.552L228.578,3.465z M274.273,144.784c0,20.101-9.772,39.07-26.139,50.741
				c-21.959,15.657-35.068,41.105-35.068,68.075v222.856c0,2.346-1.909,4.255-4.255,4.255h-60.681c-2.346,0-4.255-1.909-4.255-4.255
				V263.6c0-26.969-13.109-52.417-35.068-68.075c-16.367-11.671-26.139-30.64-26.139-50.741v-18.946
				c0-30.031,11.694-58.263,32.93-79.498l9.648-9.649v91.392c0,5.879,4.766,10.645,10.645,10.645h85.157
				c5.879,0,10.645-4.766,10.645-10.645V36.691l9.648,9.649c21.236,21.234,32.93,49.467,32.93,79.497V144.784z"/>
			<path d="M205.083,177.943H151.86c-5.879,0-10.645,4.766-10.645,10.645s4.766,10.645,10.645,10.645h53.223
				c5.879,0,10.645-4.766,10.645-10.645S210.962,177.943,205.083,177.943z"/>
		</g>
	</g>
</g>
<g>
</g>
<g>
</g>
<g>
</g>
<g>
</g>
<g>
</g>
<g>
</g>
<g>
</g>
<g>
</g>
<g>
</g>
<g>
</g>
<g>
</g>
<g>
</g>
<g>
</g>
<g>
</g>
<g>
</g>
</svg>
